<?xml version="1.0" encoding="UTF-8" standalone="no"?>
<!-- Created with Inkscape (http://www.inkscape.org/) -->

<svg
   width="124.58159mm"
   height="124.58161mm"
   viewBox="0 0 124.58159 124.58161"
   version="1.1"
   id="svg1"
   xml:space="preserve"
   inkscape:export-filename="toggel-nav.png"
   inkscape:export-xdpi="52.200001"
   inkscape:export-ydpi="52.200001"
   inkscape:version="1.3.2 (091e20e, 2023-11-25, custom)"
   sodipodi:docname="iconssvg.svg"
   xmlns:inkscape="http://www.inkscape.org/namespaces/inkscape"
   xmlns:sodipodi="http://sodipodi.sourceforge.net/DTD/sodipodi-0.dtd"
   xmlns="http://www.w3.org/2000/svg"
   xmlns:svg="http://www.w3.org/2000/svg"><sodipodi:namedview
     id="namedview1"
     pagecolor="#505050"
     bordercolor="#ffffff"
     borderopacity="1"
     inkscape:showpageshadow="0"
     inkscape:pageopacity="0"
     inkscape:pagecheckerboard="1"
     inkscape:deskcolor="#505050"
     inkscape:document-units="mm"
     inkscape:zoom="1.0708053"
     inkscape:cx="99.457859"
     inkscape:cy="395.96368"
     inkscape:window-width="2481"
     inkscape:window-height="1411"
     inkscape:window-x="-9"
     inkscape:window-y="-9"
     inkscape:window-maximized="1"
     inkscape:current-layer="layer1" /><defs
     id="defs1" /><g
     inkscape:label="Layer 1"
     inkscape:groupmode="layer"
     id="layer1"
     transform="translate(-51.366974,-199.78921)"><g
       id="g14"><path
         id="path1"
         style="fill:#000000;fill-opacity:1;stroke:none;stroke-width:2.90785;stroke-linecap:round"
         d="m 113.65777,228.93593 a 33.143938,33.143938 0 0 0 -33.143859,33.14431 33.143938,33.143938 0 0 0 33.143859,33.14387 33.143938,33.143938 0 0 0 33.14385,-33.14387 33.143938,33.143938 0 0 0 -33.14385,-33.14431 z m -11.59241,11.71023 a 28.912162,28.912162 0 0 0 -0.59601,5.50166 28.912162,28.912162 0 0 0 28.91199,28.91245 28.912162,28.912162 0 0 0 4.11359,-0.29455 24.430038,24.430038 0 0 1 -20.83716,11.74429 24.430038,24.430038 0 0 1 -24.430221,-24.42977 24.430038,24.430038 0 0 1 12.837811,-21.43408 z" /><rect
         style="fill:#000000;fill-opacity:1;stroke:none;stroke-width:2.90785;stroke-linecap:round"
         id="rect2"
         width="8.9120789"
         height="17.648493"
         x="109.20172"
         y="206.60321"
         ry="2.4160337" /><rect
         style="fill:#000000;fill-opacity:1;stroke:none;stroke-width:2.90785;stroke-linecap:round"
         id="rect3"
         width="8.9120789"
         height="17.648493"
         x="109.20172"
         y="299.90833"
         ry="2.4160337" /><rect
         style="fill:#000000;fill-opacity:1;stroke:none;stroke-width:2.90785;stroke-linecap:round"
         id="rect4"
         width="8.9120789"
         height="17.648493"
         x="257.62399"
         y="-169.13457"
         ry="2.4160337"
         transform="rotate(90)" /><rect
         style="fill:#000000;fill-opacity:1;stroke:none;stroke-width:2.90785;stroke-linecap:round"
         id="rect5"
         width="8.9120789"
         height="17.648493"
         x="257.62399"
         y="-75.82946"
         ry="2.4160337"
         transform="rotate(90)" /><rect
         style="fill:#000000;fill-opacity:1;stroke:none;stroke-width:2.90785;stroke-linecap:round"
         id="rect6"
         width="8.9120789"
         height="17.648493"
         x="100.49432"
         y="-321.16357"
         ry="2.4160337"
         transform="rotate(135)" /><rect
         style="fill:#000000;fill-opacity:1;stroke:none;stroke-width:2.90785;stroke-linecap:round"
         id="rect7"
         width="8.9120789"
         height="17.648493"
         x="100.49432"
         y="-227.85843"
         ry="2.4160337"
         transform="rotate(135)" /><rect
         style="fill:#000000;fill-opacity:1;stroke:none;stroke-width:2.90785;stroke-linecap:round"
         id="rect8"
         width="8.9120789"
         height="17.648493"
         x="-270.14276"
         y="-160.42715"
         ry="2.4160337"
         transform="rotate(-135)" /><rect
         style="fill:#000000;fill-opacity:1;stroke:none;stroke-width:2.90785;stroke-linecap:round"
         id="rect9"
         width="8.9120789"
         height="17.648493"
         x="-270.14276"
         y="-67.122055"
         ry="2.4160337"
         transform="rotate(-135)" /></g><g
       id="g13"
       transform="matrix(1.2325351,0,0,1.2325351,-30.446009,-79.385475)"><rect
         style="fill:#000000;fill-opacity:1;stroke:none;stroke-width:2.90785;stroke-linecap:round"
         id="rect11"
         width="8.9120789"
         height="67.146751"
         x="366.0069"
         y="-150.48994"
         ry="2.4160337"
         transform="rotate(90)" /><rect
         style="fill:#000000;fill-opacity:1;stroke:none;stroke-width:2.90785;stroke-linecap:round"
         id="rect12"
         width="8.9120789"
         height="67.146751"
         x="341.48849"
         y="-150.48994"
         ry="2.4160337"
         transform="rotate(90)" /><rect
         style="fill:#000000;fill-opacity:1;stroke:none;stroke-width:2.90785;stroke-linecap:round"
         id="rect13"
         width="8.9120789"
         height="67.146751"
         x="390.52533"
         y="-150.48994"
         ry="2.4160337"
         transform="rotate(90)" /></g></g></svg>
